PathFileType	4	(X/Y/Z)	C:\Users\willi\Documents\UniDataLokal\DATA_Hans_PhD\TD04\B\3DGAIT_B_W12\marker_experimental.trc
DataRate	CameraRate	NumFrames	NumMarkers	Units	OrigDataRate	OrigDataStartFrame	OrigNumFrames
100.000000	100.000000	4	97	mm	100.000000	119	191
Frame#	Time	RBAK			C7			CLAV			T10			STRN			RASI			RPSI			LPSI			LASI			LPELV			RPELV			RTHI1			RTHI2			RTHI3			RTHI			RKNE			RKNEM			RPAT			RLKNEL			RLKNEM			RLPAT			RTIB1			RTIB2			RTIB3			RTIB			RANK			RANKM			RHEEL			RTOE			RM5			LTHI1			LTHI2			LTHI3			LTHI			LKNE			LKNEM			LPAT			LLKNE			LLKNEM			LLPAT			LTIB1			LTIB2			LTIB3			LTIB			LANK			LANKM			LHEEL			LTOE			LM5			*49			*50			*51			*52			*53			*54			*55			*56			*57			*58			*59			*60			*61			*62			*63			*64			*65			*66			*67			*68			*69			*70			*71			*72			*73			*74			*75			*76			*77			*78			*79			*80			*81			*82			*83			*84			*85			*86			*87			*88			*89			*90			*91			*92			*93			*94			*95			*96			
		X1	Y1	Z1	X2	Y2	Z2	X3	Y3	Z3	X4	Y4	Z4	X5	Y5	Z5	X6	Y6	Z6	X7	Y7	Z7	X8	Y8	Z8	X9	Y9	Z9	X10	Y10	Z10	X11	Y11	Z11	X12	Y12	Z12	X13	Y13	Z13	X14	Y14	Z14	X15	Y15	Z15	X16	Y16	Z16	X17	Y17	Z17	X18	Y18	Z18	X19	Y19	Z19	X20	Y20	Z20	X21	Y21	Z21	X22	Y22	Z22	X23	Y23	Z23	X24	Y24	Z24	X25	Y25	Z25	X26	Y26	Z26	X27	Y27	Z27	X28	Y28	Z28	X29	Y29	Z29	X30	Y30	Z30	X31	Y31	Z31	X32	Y32	Z32	X33	Y33	Z33	X34	Y34	Z34	X35	Y35	Z35	X36	Y36	Z36	X37	Y37	Z37	X38	Y38	Z38	X39	Y39	Z39	X40	Y40	Z40	X41	Y41	Z41	X42	Y42	Z42	X43	Y43	Z43	X44	Y44	Z44	X45	Y45	Z45	X46	Y46	Z46	X47	Y47	Z47	X48	Y48	Z48	X49	Y49	Z49	X50	Y50	Z50	X51	Y51	Z51	X52	Y52	Z52	X53	Y53	Z53	X54	Y54	Z54	X55	Y55	Z55	X56	Y56	Z56	X57	Y57	Z57	X58	Y58	Z58	X59	Y59	Z59	X60	Y60	Z60	X61	Y61	Z61	X62	Y62	Z62	X63	Y63	Z63	X64	Y64	Z64	X65	Y65	Z65	X66	Y66	Z66	X67	Y67	Z67	X68	Y68	Z68	X69	Y69	Z69	X70	Y70	Z70	X71	Y71	Z71	X72	Y72	Z72	X73	Y73	Z73	X74	Y74	Z74	X75	Y75	Z75	X76	Y76	Z76	X77	Y77	Z77	X78	Y78	Z78	X79	Y79	Z79	X80	Y80	Z80	X81	Y81	Z81	X82	Y82	Z82	X83	Y83	Z83	X84	Y84	Z84	X85	Y85	Z85	X86	Y86	Z86	X87	Y87	Z87	X88	Y88	Z88	X89	Y89	Z89	X90	Y90	Z90	X91	Y91	Z91	X92	Y92	Z92	X93	Y93	Z93	X94	Y94	Z94	X95	Y95	Z95	X96	Y96	Z96	X97	Y97	Z97	

120	1.19	-275.8517761230468	1320.030883789062	358.8079528808594	-245.4987335205078	1364.15869140625	260.7481994628906	-139.0082244873046	1279.436401367188	264.842041015625	-276.8380737304687	986.332763671875	258.1631774902344	-84.30097961425777	1033.754028320312	256.6754150390625	-112.9104690551758	882.0730590820312	367.5855407714844	-293.4140014648437	913.1236572265625	302.7670288085938	-299.1957397460937	909.6409912109375	214.4955291748047	-110.553726196289	879.3372192382812	159.9322814941406	-201.5294647216796	950.3837890625	109.4481658935547	-212.156753540039	957.4119262695312	403.92333984375	-264.8023681640624	639.7611694335938	387.4119873046875	-228.2627258300781	579.6045532226562	404.0799865722656	-269.8452758789062	535.6373291015625	372.6603393554688	-170.5825500488281	540.1976928710938	433.6412048339844	-196.6266021728516	449.544921875	378.2976989746094	-232.8872833251953	443.6519470214844	254.2586975097656	-155.4923553466797	434.8869934082031	304.9638366699219	-211.235107421875	416.1149291992188	376.2245483398438	-261.7272644042969	399.5485229492188	263.2141723632812	-193.3061065673828	371.901123046875	321.455322265625	-216.2951354980469	270.0713195800781	318.9259033203125	-240.8262481689453	229.9354705810547	364.5859985351562	-243.9766845703125	178.7048645019532	317.6271057128906	-297.141357421875	183.9732666015625	408.4981994628906	-315.6528625488281	71.21887207031251	349.5290832519531	-298.4725952148438	84.15541076660158	273.4512329101562	-365.7717590332031	38.1917419433594	310.4747924804688	-181.2269134521485	36.28370666503908	337.5491333007812	-207.8005981445313	16.87465286254884	375.7821350097656	-155.901138305664	604.6113891601562	108.9409866333008	-95.65782928466793	581.8770751953125	91.35728454589844	-101.8671875	523.3109130859375	121.8265838623047	-47.11122894287106	572.9813232421875	55.7423210144043	-15.25239181518553	477.6694030761719	111.7200317382812	-24.89469718933104	466.4718627929688	236.6357116699219	53.03001403808595	487.7542724609375	175.3042755126953	-34.48334884643553	444.2694091796875	111.464111328125	-26.23593521118163	427.4029235839844	228.6051025390625	17.94603157043458	406.8997192382812	155.9364318847656	-22.04544067382812	275.9152221679688	156.1558837890625	-60.5579490661621	232.4607391357422	119.0216293334961	-47.33962631225585	184.2244262695312	158.52392578125	-129.0189208984375	230.0941314697266	85.22840881347655	-124.1980667114258	110.12060546875	135.5060882568359	-79.11633300781251	109.1220016479492	195.1619262695312	-161.0003967285156	77.21975708007814	189.6460571289062	-2.797081947326663	49.61812973022461	102.8040771484375	-37.96808242797852	30.07282257080078	77.14588165283203	nan	nan	nan	nan	nan	nan	nan	nan	nan	nan	nan	nan	nan	nan	nan	nan	nan	nan	nan	nan	nan	nan	nan	nan	nan	nan	nan	nan	nan	nan	nan	nan	nan	nan	nan	nan	nan	nan	nan	nan	nan	nan	nan	nan	nan	nan	nan	nan	nan	nan	nan	nan	nan	nan	nan	nan	nan	nan	nan	nan	nan	nan	nan	nan	nan	nan	nan	nan	nan	nan	nan	nan	nan	nan	nan	nan	nan	nan	nan	nan	nan	nan	nan	nan	nan	nan	nan	nan	nan	nan	nan	nan	nan	nan	nan	nan	nan	nan	nan	nan	nan	nan	nan	nan	nan	nan	nan	nan	nan	nan	nan	nan	nan	nan	nan	nan	nan	nan	nan	nan	nan	nan	nan	nan	nan	nan	nan	nan	nan	nan	nan	nan	nan	nan	nan	nan	nan	nan	nan	nan	nan	nan	nan	nan	
121	1.2	-265.5318603515624	1318.797729492188	358.7018432617188	-235.1945037841796	1362.7734375	260.5534973144531	-128.7835083007812	1277.970825195312	264.6984558105469	-266.7606201171874	984.9469604492188	257.4607238769531	-74.18495178222652	1032.424194335938	256.9440002441406	-103.8212356567383	880.6376342773438	367.9590454101562	-283.6853942871093	911.6687622070312	301.576171875	-288.7157287597656	908.2273559570312	213.349136352539	-99.56947326660152	878.3317260742188	160.3836822509766	-190.360366821289	949.3370971679688	109.1349792480469	-203.2966613769531	955.923583984375	403.5806884765625	-258.2030944824218	640.1021728515625	386.6646728515625	-222.8076782226562	579.45068359375	403.8615417480469	-264.8161621093749	536.0343627929688	372.1633605957031	-165.6205291748047	539.286376953125	433.6803283691406	-192.8580474853516	448.843994140625	378.4688110351562	-228.6033020019531	443.3157348632812	254.1514282226562	-151.6435241699219	433.480224609375	305.4999389648438	-207.8843994140625	415.5669860839844	376.2073364257812	-258.0909423828125	399.55029296875	262.9055786132812	-190.61083984375	370.9363403320312	321.6003112792969	-214.1263122558594	269.5968322753906	318.7671203613281	-239.1320953369141	229.6683959960938	364.4329833984375	-242.5125885009766	178.5678253173828	317.4779052734375	-295.9428405761719	184.2339477539063	408.2197570800781	-315.3615112304688	71.63726043701173	349.2400207519531	-298.0289001464844	84.39074707031251	273.1355285644531	-365.6908569335938	38.79571533203127	310.126220703125	-181.0558319091797	36.17745971679689	337.4785461425781	-207.8609008789063	16.97031974792482	375.6805419921875	-145.9736022949218	603.6433715820312	108.185791015625	-85.92105102539058	580.37158203125	91.04482269287109	-92.67615509033202	521.7952880859375	121.1949691772461	-37.28135299682614	571.2418212890625	55.71434020996094	-5.672633647918679	475.7607116699219	111.625114440918	-15.61888885498045	463.968994140625	236.3834075927734	62.01098251342775	486.7048034667969	175.9590454101562	-23.75654983520506	441.7867126464844	110.7109069824219	-16.00671195983886	424.8550109863281	228.2558441162109	29.7880039215088	406.6417541503906	155.83349609375	-1.339768648147576	274.5065612792969	154.6682739257812	-36.19571685791015	228.8194274902344	116.8537979125977	-20.2987174987793	181.2634429931641	156.1805725097656	-103.967399597168	222.0577545166016	82.21699523925781	-91.41836547851564	102.1907043457031	131.8468475341797	-47.08043289184571	103.78369140625	192.0143890380859	-126.4864654541016	66.69004058837892	185.6352081298828	33.78681182861327	49.85953903198242	99.52866363525391	0.1701106429100009	28.27843856811523	73.53007507324219	nan	nan	nan	nan	nan	nan	nan	nan	nan	nan	nan	nan	nan	nan	nan	nan	nan	nan	nan	nan	nan	nan	nan	nan	nan	nan	nan	nan	nan	nan	nan	nan	nan	nan	nan	nan	nan	nan	nan	nan	nan	nan	nan	nan	nan	nan	nan	nan	nan	nan	nan	nan	nan	nan	nan	nan	nan	nan	nan	nan	nan	nan	nan	nan	nan	nan	nan	nan	nan	nan	nan	nan	nan	nan	nan	nan	nan	nan	nan	nan	nan	nan	nan	nan	nan	nan	nan	nan	nan	nan	nan	nan	nan	nan	nan	nan	nan	nan	nan	nan	nan	nan	nan	nan	nan	nan	nan	nan	nan	nan	nan	nan	nan	nan	nan	nan	nan	nan	nan	nan	nan	nan	nan	nan	nan	nan	nan	nan	nan	nan	nan	nan	nan	nan	nan	nan	nan	nan	nan	nan	nan	nan	nan	nan	
122	1.21	-255.2100372314453	1317.418701171875	358.4911499023438	-224.8829040527343	1361.265747070312	260.2635803222656	-118.5243682861328	1276.3828125	264.4797973632812	-256.6029357910156	983.4173583984375	256.6506042480469	-64.03845214843746	1030.934448242188	257.1280822753906	-94.71791839599607	879.1332397460938	368.3268127441406	-273.8846435546874	910.080078125	300.2798156738281	-278.1242980957031	906.6555786132812	212.1189575195312	-88.47252655029293	877.148681640625	160.8158569335938	-179.0596923828124	948.0900268554688	108.7468109130859	-194.5009460449218	954.318115234375	403.1636047363281	-251.5076446533203	640.4290161132812	385.8113403320312	-217.3039855957031	579.3015747070312	403.5860900878906	-259.6691284179687	536.4376220703125	371.5340881347656	-160.6829986572266	538.3997802734375	433.7542419433594	-188.9901733398438	448.1676330566406	378.6234436035156	-224.1028442382812	442.993896484375	254.0075836181641	-147.6437072753906	432.0560913085938	306.0517272949219	-204.4404449462891	415.0482788085938	376.1736450195312	-254.2555389404297	399.568115234375	262.5411376953125	-187.7490234375	369.9715881347656	321.7330627441406	-211.8684997558594	269.14697265625	318.6059875488281	-237.3821563720703	229.4537353515625	364.2816467285156	-240.9537963867188	178.4945983886719	317.3411560058594	-294.7616882324219	184.5972900390625	407.9012756347656	-315.0646667480469	72.14461517333986	348.9156188964844	-297.524658203125	84.70431518554689	272.8026123046875	-365.5903930664062	39.50625991821291	309.7239074707031	-180.8794555664063	36.07719039916994	337.4197387695312	-207.9547576904297	17.08317947387697	375.5750732421875	-136.4272918701172	602.430419921875	107.4545211791992	-76.64508819580075	578.4811401367188	90.69506072998047	-84.03992462158202	519.9275512695312	120.5872955322266	-28.04260635375973	568.9573364257812	55.56819534301758	3.307057142257713	473.3414001464844	111.4209213256836	-7.192231178283677	461.0120239257812	236.1438446044922	70.31020355224611	484.9981384277344	176.5863494873047	-13.57719135284422	438.9057312011719	109.8726272583008	-6.236927032470692	421.760009765625	227.9259490966797	40.97988128662111	405.9837036132812	155.7381439208984	18.77159309387208	273.3275756835938	153.2619476318359	-12.25549602508544	225.6622619628906	114.7675018310547	6.215520381927491	178.9483032226562	153.9706573486328	-78.88891601562499	214.5596008300781	79.11672973632812	-58.69100570678711	95.31486511230469	128.2517395019531	-15.3926591873169	99.49002838134766	189.0163726806641	-91.96834564208986	57.38822937011719	181.6727752685547	69.84497833251953	51.17678451538085	96.67626953125	37.95159149169921	27.70771408081054	70.30110931396484	nan	nan	nan	nan	nan	nan	nan	nan	nan	nan	nan	nan	nan	nan	nan	nan	nan	nan	nan	nan	nan	nan	nan	nan	nan	nan	nan	nan	nan	nan	nan	nan	nan	nan	nan	nan	nan	nan	nan	nan	nan	nan	nan	nan	nan	nan	nan	nan	nan	nan	nan	nan	nan	nan	nan	nan	nan	nan	nan	nan	nan	nan	nan	nan	nan	nan	nan	nan	nan	nan	nan	nan	nan	nan	nan	nan	nan	nan	nan	nan	nan	nan	nan	nan	nan	nan	nan	nan	nan	nan	nan	nan	nan	nan	nan	nan	nan	nan	nan	nan	nan	nan	nan	nan	nan	nan	nan	nan	nan	nan	nan	nan	nan	nan	nan	nan	nan	nan	nan	nan	nan	nan	nan	nan	nan	nan	nan	nan	nan	nan	nan	nan	nan	nan	nan	nan	nan	nan	nan	nan	nan	nan	nan	nan	
123	1.22	-244.8769073486328	1315.911376953125	358.1717224121094	-214.5569152832031	1359.654541015625	259.8736267089844	-108.2231369018554	1274.69189453125	264.1775207519531	-246.3564147949218	981.7625732421875	255.7415161132812	-53.85010910034175	1029.2998046875	257.2176208496094	-85.58397674560544	877.568603515625	368.6837768554688	-264.0002136230468	908.3765869140625	298.8863830566406	-267.4194641113281	904.947509765625	210.8143157958984	-77.26686096191402	875.8024291992188	161.2178039550781	-167.6340789794921	946.6572875976562	108.2821807861328	-185.7480010986328	952.6057739257812	402.6701965332031	-244.6947631835938	640.7365112304688	384.8399047851562	-211.7268524169922	579.155029296875	403.2442321777344	-254.3671569824219	536.8389892578125	370.7632751464844	-155.7467803955078	537.5409545898438	433.8609619140625	-184.9852752685547	447.5123901367188	378.7527465820312	-219.3273315429688	442.6714172363281	253.8225860595703	-143.4609680175781	430.6052551269531	306.6155700683594	-200.8663177490234	414.5546569824219	376.1173706054688	-250.1660766601562	399.59033203125	262.1148986816406	-184.6776275634766	369.0072021484375	321.8456420898438	-209.4985504150391	268.7160034179688	318.4454650878906	-235.5525360107422	229.2891540527344	364.1295776367188	-239.2899322509766	178.475830078125	317.20947265625	-293.57177734375	185.0710144042969	407.5411071777344	-314.7501831054688	72.74849700927736	348.5537719726562	-296.9489440917969	85.10313415527345	272.4520874023438	-365.4632873535156	40.34098815917971	309.2630920410156	-180.716049194336	35.99033737182619	337.369873046875	-208.0803680419922	17.21371078491212	375.4642333984375	-127.1780624389648	601.0060424804688	106.7192840576172	-67.72198486328122	576.2754516601562	90.28406524658203	-75.84912109374999	517.7762451171875	119.9731292724609	-19.26949501037594	566.2159423828125	55.28805160522461	11.8044652938843	470.5027465820312	111.1059494018555	0.3818989396095412	457.552001953125	235.8747406005859	78.02678680419923	482.7398376464844	177.1915130615234	-3.850023031234721	435.7169799804688	108.9655380249023	2.941418647766125	418.1541748046875	227.5032653808594	51.60488128662111	404.9843139648438	155.6611480712891	38.2194938659668	272.3998718261719	151.9805297851562	11.12342834472657	223.03955078125	112.8198547363281	32.02656936645509	177.3120422363281	151.9594421386719	-53.94662475585937	207.7447204589844	75.9993896484375	-26.30757522583008	89.60249328613281	124.8227386474609	15.65504360198974	96.30197143554688	186.2595825195312	-57.78924560546876	49.43253326416016	177.84765625	105.1122055053711	53.6155662536621	94.41387176513672	75.09538269042969	28.41155624389648	67.61859893798828	nan	nan	nan	nan	nan	nan	nan	nan	nan	nan	nan	nan	nan	nan	nan	nan	nan	nan	nan	nan	nan	nan	nan	nan	nan	nan	nan	nan	nan	nan	nan	nan	nan	nan	nan	nan	nan	nan	nan	nan	nan	nan	nan	nan	nan	nan	nan	nan	nan	nan	nan	nan	nan	nan	nan	nan	nan	nan	nan	nan	nan	nan	nan	nan	nan	nan	nan	nan	nan	nan	nan	nan	nan	nan	nan	nan	nan	nan	nan	nan	nan	nan	nan	nan	nan	nan	nan	nan	nan	nan	nan	nan	nan	nan	nan	nan	nan	nan	nan	nan	nan	nan	nan	nan	nan	nan	nan	nan	nan	nan	nan	nan	nan	nan	nan	nan	nan	nan	nan	nan	nan	nan	nan	nan	nan	nan	nan	nan	nan	nan	nan	nan	nan	nan	nan	nan	nan	nan	nan	nan	nan	nan	nan	nan	
